<?xml version="1.0" encoding="utf-8"?>
<svg xmlns="http://www.w3.org/2000/svg" style="margin: auto; display: block; shape-rendering: auto;" width="272" height="245" preserveAspectRatio="xMidYMid">
<style type="text/css">
  text {
    text-anchor: middle; font-size: 80px; opacity: 0;
  }
</style>
<g style="transform-origin:136px 122.5px;transform:scale(1)">
<g transform="translate(136,122.5)">
  <g transform="translate(0,0)"><g class="path" style="transform: rotate(0deg); transform-origin: -80.56px 3.16032px; animation: 1s linear -0.528s infinite normal forwards running spin-39bc2e94-3b77-499c-bd0c-20ab674d457d;"><path d="M15.60 0L0.80-40.24L7.84-40.24L17.60-11.84L19.36-5.52L19.44-5.52L21.28-11.84L31.68-40.24L38.40-40.24L22.80 0L15.60 0" fill="#ffffff" stroke="none" stroke-width="none" transform="translate(-100.16000366210938,23.2803217163086)" style="fill: rgb(255, 255, 255);"></path></g><g class="path" style="transform: rotate(0deg); transform-origin: -38.48px 3.28032px; animation: 1s linear -0.396s infinite normal forwards running spin-39bc2e94-3b77-499c-bd0c-20ab674d457d;"><path d="M49.04-19.92L49.04-19.92L49.04-19.92Q49.04-12.16 52.52-8.36L52.52-8.36L52.52-8.36Q56-4.56 61.92-4.56L61.92-4.56L61.92-4.56Q67.76-4.56 71.04-8.32L71.04-8.32L71.04-8.32Q74.32-12.08 74.32-19.60L74.32-19.60L74.32-19.60Q74.32-27.60 70.84-31.52L70.84-31.52L70.84-31.52Q67.36-35.44 61.36-35.44L61.36-35.44L61.36-35.44Q55.36-35.44 52.20-31.56L52.20-31.56L52.20-31.56Q49.04-27.68 49.04-19.92zM42.24-20L42.24-20L42.24-20Q42.24-26.08 44.16-30.12L44.16-30.12L44.16-30.12Q46.08-34.16 49.04-36.60L49.04-36.60L49.04-36.60Q52-39.04 55.40-40.04L55.40-40.04L55.40-40.04Q58.80-41.04 61.84-41.04L61.84-41.04L61.84-41.04Q64.72-41.04 68.12-40.12L68.12-40.12L68.12-40.12Q71.52-39.20 74.40-36.84L74.40-36.84L74.40-36.84Q77.28-34.48 79.20-30.52L79.20-30.52L79.20-30.52Q81.12-26.56 81.12-20.48L81.12-20.48L81.12-20.48Q81.12-14.16 79.16-10L79.16-10L79.16-10Q77.20-5.84 74.24-3.40L74.24-3.40L74.24-3.40Q71.28-0.96 67.84 0.04L67.84 0.04L67.84 0.04Q64.40 1.04 61.44 1.04L61.44 1.04L61.44 1.04Q58.40 1.04 55.04 0.08L55.04 0.08L55.04 0.08Q51.68-0.88 48.84-3.24L48.84-3.24L48.84-3.24Q46-5.60 44.12-9.68L44.12-9.68L44.12-9.68Q42.24-13.76 42.24-20" fill="#ffffff" stroke="none" stroke-width="none" transform="translate(-100.16000366210938,23.2803217163086)" style="fill: rgb(255, 255, 255);"></path></g><g class="path" style="transform: rotate(0deg); transform-origin: 3.68px 3.16032px; animation: 1s linear -0.264s infinite normal forwards running spin-39bc2e94-3b77-499c-bd0c-20ab674d457d;"><path d="M84.16 0L99.44-21.12L84.56-40.24L92.08-40.24L103.84-25.36L114.96-40.24L122.16-40.24L108.16-21.36L123.52 0L116 0L103.76-17.04L91.36 0L84.16 0" fill="#ffffff" stroke="none" stroke-width="none" transform="translate(-100.16000366210938,23.2803217163086)" style="fill: rgb(255, 255, 255);"></path></g><g class="path" style="transform: rotate(0deg); transform-origin: 43.24px 3.28032px; animation: 1s linear -0.132s infinite normal forwards running spin-39bc2e94-3b77-499c-bd0c-20ab674d457d;"><path d="M157.20-6.32L158.40-0.96L158.40-0.96Q156.56-0.40 154.60 0L154.60 0L154.60 0Q152.64 0.40 150.28 0.72L150.28 0.72L150.28 0.72Q147.92 1.04 145.36 1.04L145.36 1.04L145.36 1.04Q141.36 1.04 137.92-0.08L137.92-0.08L137.92-0.08Q134.48-1.20 131.92-3.68L131.92-3.68L131.92-3.68Q129.36-6.16 127.88-10.12L127.88-10.12L127.88-10.12Q126.40-14.08 126.40-19.84L126.40-19.84L126.40-19.84Q126.40-25.04 127.84-29L127.84-29L127.84-29Q129.28-32.96 131.80-35.64L131.80-35.64L131.80-35.64Q134.32-38.32 137.72-39.68L137.72-39.68L137.72-39.68Q141.12-41.04 145.12-41.04L145.12-41.04L145.12-41.04Q149.04-41.04 151.92-39.52L151.92-39.52L151.92-39.52Q154.80-38 156.68-35.40L156.68-35.40L156.68-35.40Q158.56-32.80 159.48-29.32L159.48-29.32L159.48-29.32Q160.40-25.84 160.40-22L160.40-22L159.20-18.48L133.36-18.48L133.36-18.48Q133.36-16 134-13.52L134-13.52L134-13.52Q134.64-11.04 136.20-9.04L136.20-9.04L136.20-9.04Q137.76-7.04 140.28-5.80L140.28-5.80L140.28-5.80Q142.80-4.56 146.56-4.56L146.56-4.56L146.56-4.56Q148.96-4.56 150.96-4.84L150.96-4.84L150.96-4.84Q152.96-5.12 154.44-5.48L154.44-5.48L154.44-5.48Q155.92-5.84 157.20-6.32L157.20-6.32zM133.60-23.60L153.76-23.60L153.76-23.60Q153.76-24.16 153.52-26.08L153.52-26.08L153.52-26.08Q153.28-28 152.40-30.08L152.40-30.08L152.40-30.08Q151.52-32.16 149.68-33.80L149.68-33.80L149.68-33.80Q147.84-35.44 144.80-35.44L144.80-35.44L144.80-35.44Q141.44-35.44 139.28-34.04L139.28-34.04L139.28-34.04Q137.12-32.64 135.84-30.72L135.84-30.72L135.84-30.72Q134.56-28.80 134.08-26.80L134.08-26.80L134.08-26.80Q133.60-24.80 133.60-23.60L133.60-23.60" fill="#ffffff" stroke="none" stroke-width="none" transform="translate(-100.16000366210938,23.2803217163086)" style="fill: rgb(255, 255, 255);"></path></g><g class="path" style="transform: rotate(0deg); transform-origin: 83.88px -6.51968px; animation: 1s linear 0s infinite normal forwards running spin-39bc2e94-3b77-499c-bd0c-20ab674d457d;"><path d="M194.24-8.80L194.24-34.24L194.24-34.24Q191.36-35.04 189.76-35.24L189.76-35.24L189.76-35.24Q188.16-35.44 186.48-35.44L186.48-35.44L186.48-35.44Q183.12-35.44 180.72-34.24L180.72-34.24L180.72-34.24Q178.32-33.04 176.76-30.92L176.76-30.92L176.76-30.92Q175.20-28.80 174.48-26.04L174.48-26.04L174.48-26.04Q173.76-23.28 173.76-20.16L173.76-20.16L173.76-20.16Q173.76-17.36 174.36-14.56L174.36-14.56L174.36-14.56Q174.96-11.76 176.24-9.52L176.24-9.52L176.24-9.52Q177.52-7.28 179.36-5.92L179.36-5.92L179.36-5.92Q181.20-4.56 183.76-4.56L183.76-4.56L183.76-4.56Q185.52-4.56 187.40-5.20L187.40-5.20L187.40-5.20Q189.28-5.84 190.88-6.68L190.88-6.68L190.88-6.68Q192.48-7.52 194.24-8.80L194.24-8.80zM194.96 0.64L194.32-3.20L194.32-3.20Q192.48-1.92 190.76-1.08L190.76-1.08L190.76-1.08Q189.04-0.24 187 0.40L187 0.40L187 0.40Q184.96 1.04 183.04 1.04L183.04 1.04L183.04 1.04Q175.52 1.04 171.24-4.28L171.24-4.28L171.24-4.28Q166.96-9.60 166.96-19.84L166.96-19.84L166.96-19.84Q166.96-25.92 168.92-30L168.92-30L168.92-30Q170.88-34.08 173.84-36.52L173.84-36.52L173.84-36.52Q176.80-38.96 180.20-40L180.20-40L180.20-40Q183.60-41.04 186.48-41.04L186.48-41.04L186.48-41.04Q187.92-41.04 189.52-40.84L189.52-40.84L189.52-40.84Q191.12-40.64 194.24-39.84L194.24-39.84L194.24-59.92L200.64-60.64L200.64-7.28L200.64-7.28Q200.64-6.16 200.68-4.92L200.68-4.92L200.68-4.92Q200.72-3.68 200.84-2.48L200.84-2.48L200.84-2.48Q200.96-1.28 201.12 0L201.12 0L194.96 0.64" fill="#ffffff" stroke="none" stroke-width="none" transform="translate(-100.16000366210938,23.2803217163086)" style="fill: rgb(255, 255, 255);"></path></g></g>
</g>
</g>
<style id="spin-39bc2e94-3b77-499c-bd0c-20ab674d457d" data-anikit="">@keyframes spin-39bc2e94-3b77-499c-bd0c-20ab674d457d
{
  0% {
    animation-timing-function: cubic-bezier(0.5856,0.0703,0.4143,0.9297);
    transform: rotate(0deg);
  }
  100% {
    transform: rotate(360deg);
  }
}</style></svg>